# MagicaVoxel @ Ephtracy

# group
o 

# material
mtllib Coin.mtl
usemtl palette

# normals
vn -1 0 0
vn 1 0 0
vn 0 0 1
vn 0 0 -1
vn 0 -1 0
vn 0 1 0

# texcoords
vt 0.0449219 0.5
vt 0.0683594 0.5

# verts
v -0.2 0.1 0.7
v -0.2 0.1 -0.7
v -0.2 0.2 0.8
v -0.2 0.2 0.7
v -0.2 0.2 -0.7
v -0.2 0.2 -0.8
v -0.2 0.3 0.6
v -0.2 0.3 0.4
v -0.2 0.3 0.3
v -0.2 0.3 -0.3
v -0.2 0.3 -0.4
v -0.2 0.3 -0.6
v -0.2 1.1 0.1
v -0.2 1.1 -0.1
v -0.2 1.2 0.2
v -0.2 1.2 0.1
v -0.2 1.2 -0.1
v -0.2 1.2 -0.2
v -0.2 1.3 0.3
v -0.2 1.3 0.2
v -0.2 1.3 0.1
v -0.2 1.3 -0.1
v -0.2 1.3 -0.2
v -0.2 1.3 -0.3
v -0.2 1.4 0.4
v -0.2 1.4 0.2
v -0.2 1.4 -0.2
v -0.2 1.4 -0.4
v -0.2 1.6 0.6
v -0.2 1.6 -0.6
v -0.2 1.7 0.8
v -0.2 1.7 0.7
v -0.2 1.7 -0.7
v -0.2 1.7 -0.8
v -0.2 1.8 0.7
v -0.2 1.8 -0.7
v -0.1 0 0.7
v -0.1 0 -0.7
v -0.1 0.1 0.8
v -0.1 0.1 0.7
v -0.1 0.1 -0.7
v -0.1 0.1 -0.8
v -0.1 0.2 0.9
v -0.1 0.2 0.8
v -0.1 0.2 0.7
v -0.1 0.2 -0.7
v -0.1 0.2 -0.8
v -0.1 0.2 -0.9
v -0.1 0.3 0.6
v -0.1 0.3 0.4
v -0.1 0.3 0.3
v -0.1 0.3 -0.3
v -0.1 0.3 -0.4
v -0.1 0.3 -0.6
v -0.1 1.1 0.1
v -0.1 1.1 -0.1
v -0.1 1.2 0.2
v -0.1 1.2 0.1
v -0.1 1.2 -0.1
v -0.1 1.2 -0.2
v -0.1 1.3 0.3
v -0.1 1.3 0.2
v -0.1 1.3 0.1
v -0.1 1.3 -0.1
v -0.1 1.3 -0.2
v -0.1 1.3 -0.3
v -0.1 1.4 0.4
v -0.1 1.4 0.2
v -0.1 1.4 -0.2
v -0.1 1.4 -0.4
v -0.1 1.6 0.6
v -0.1 1.6 -0.6
v -0.1 1.7 0.9
v -0.1 1.7 0.8
v -0.1 1.7 0.7
v -0.1 1.7 -0.7
v -0.1 1.7 -0.8
v -0.1 1.7 -0.9
v -0.1 1.8 0.8
v -0.1 1.8 0.7
v -0.1 1.8 -0.7
v -0.1 1.8 -0.8
v -0.1 1.9 0.7
v -0.1 1.9 -0.7
v 0.1 0 0.7
v 0.1 0 -0.7
v 0.1 0.1 0.8
v 0.1 0.1 0.7
v 0.1 0.1 -0.7
v 0.1 0.1 -0.8
v 0.1 0.2 0.9
v 0.1 0.2 0.8
v 0.1 0.2 0.7
v 0.1 0.2 -0.7
v 0.1 0.2 -0.8
v 0.1 0.2 -0.9
v 0.1 0.3 0.6
v 0.1 0.3 0.4
v 0.1 0.3 0.3
v 0.1 0.3 -0.3
v 0.1 0.3 -0.4
v 0.1 0.3 -0.6
v 0.1 1.1 0.1
v 0.1 1.1 -0.1
v 0.1 1.2 0.2
v 0.1 1.2 0.1
v 0.1 1.2 -0.1
v 0.1 1.2 -0.2
v 0.1 1.3 0.3
v 0.1 1.3 0.2
v 0.1 1.3 0.1
v 0.1 1.3 -0.1
v 0.1 1.3 -0.2
v 0.1 1.3 -0.3
v 0.1 1.4 0.4
v 0.1 1.4 0.2
v 0.1 1.4 -0.2
v 0.1 1.4 -0.4
v 0.1 1.6 0.6
v 0.1 1.6 -0.6
v 0.1 1.7 0.9
v 0.1 1.7 0.8
v 0.1 1.7 0.7
v 0.1 1.7 -0.7
v 0.1 1.7 -0.8
v 0.1 1.7 -0.9
v 0.1 1.8 0.8
v 0.1 1.8 0.7
v 0.1 1.8 -0.7
v 0.1 1.8 -0.8
v 0.1 1.9 0.7
v 0.1 1.9 -0.7
v 0.2 0.1 0.7
v 0.2 0.1 -0.7
v 0.2 0.2 0.8
v 0.2 0.2 0.7
v 0.2 0.2 -0.7
v 0.2 0.2 -0.8
v 0.2 0.3 0.6
v 0.2 0.3 0.4
v 0.2 0.3 0.3
v 0.2 0.3 -0.3
v 0.2 0.3 -0.4
v 0.2 0.3 -0.6
v 0.2 1.1 0.1
v 0.2 1.1 -0.1
v 0.2 1.2 0.2
v 0.2 1.2 0.1
v 0.2 1.2 -0.1
v 0.2 1.2 -0.2
v 0.2 1.3 0.3
v 0.2 1.3 0.2
v 0.2 1.3 0.1
v 0.2 1.3 -0.1
v 0.2 1.3 -0.2
v 0.2 1.3 -0.3
v 0.2 1.4 0.4
v 0.2 1.4 0.2
v 0.2 1.4 -0.2
v 0.2 1.4 -0.4
v 0.2 1.6 0.6
v 0.2 1.6 -0.6
v 0.2 1.7 0.8
v 0.2 1.7 0.7
v 0.2 1.7 -0.7
v 0.2 1.7 -0.8
v 0.2 1.8 0.7
v 0.2 1.8 -0.7
v -0.1 0.2 0.9
v -0.1 1.7 0.9
v 0.1 0.2 0.9
v 0.1 1.7 0.9
v -0.2 0.2 0.8
v -0.2 1.7 0.8
v -0.1 0.1 0.8
v -0.1 0.2 0.8
v -0.1 1.7 0.8
v -0.1 1.8 0.8
v 0.1 0.1 0.8
v 0.1 0.2 0.8
v 0.1 1.7 0.8
v 0.1 1.8 0.8
v 0.2 0.2 0.8
v 0.2 1.7 0.8
v -0.2 0.1 0.7
v -0.2 0.2 0.7
v -0.2 1.7 0.7
v -0.2 1.8 0.7
v -0.1 0 0.7
v -0.1 0.1 0.7
v -0.1 0.2 0.7
v -0.1 1.7 0.7
v -0.1 1.8 0.7
v -0.1 1.9 0.7
v 0.1 0 0.7
v 0.1 0.1 0.7
v 0.1 0.2 0.7
v 0.1 1.7 0.7
v 0.1 1.8 0.7
v 0.1 1.9 0.7
v 0.2 0.1 0.7
v 0.2 0.2 0.7
v 0.2 1.7 0.7
v 0.2 1.8 0.7
v -0.2 0.3 0.4
v -0.2 1.4 0.4
v -0.1 0.3 0.4
v -0.1 1.4 0.4
v 0.1 0.3 0.4
v 0.1 1.4 0.4
v 0.2 0.3 0.4
v 0.2 1.4 0.4
v -0.2 1.2 0.2
v -0.2 1.3 0.2
v -0.1 1.2 0.2
v -0.1 1.3 0.2
v 0.1 1.2 0.2
v 0.1 1.3 0.2
v 0.2 1.2 0.2
v 0.2 1.3 0.2
v -0.2 1.1 0.1
v -0.2 1.2 0.1
v -0.1 1.1 0.1
v -0.1 1.2 0.1
v 0.1 1.1 0.1
v 0.1 1.2 0.1
v 0.2 1.1 0.1
v 0.2 1.2 0.1
v -0.2 1.2 -0.1
v -0.2 1.3 -0.1
v -0.1 1.2 -0.1
v -0.1 1.3 -0.1
v 0.1 1.2 -0.1
v 0.1 1.3 -0.1
v 0.2 1.2 -0.1
v 0.2 1.3 -0.1
v -0.2 1.3 -0.2
v -0.2 1.4 -0.2
v -0.1 1.3 -0.2
v -0.1 1.4 -0.2
v 0.1 1.3 -0.2
v 0.1 1.4 -0.2
v 0.2 1.3 -0.2
v 0.2 1.4 -0.2
v -0.2 0.3 -0.3
v -0.2 1.3 -0.3
v -0.1 0.3 -0.3
v -0.1 1.3 -0.3
v 0.1 0.3 -0.3
v 0.1 1.3 -0.3
v 0.2 0.3 -0.3
v 0.2 1.3 -0.3
v -0.2 0.3 -0.6
v -0.2 1.6 -0.6
v -0.1 0.3 -0.6
v -0.1 1.6 -0.6
v 0.1 0.3 -0.6
v 0.1 1.6 -0.6
v 0.2 0.3 -0.6
v 0.2 1.6 -0.6
v -0.2 0.3 0.6
v -0.2 1.6 0.6
v -0.1 0.3 0.6
v -0.1 1.6 0.6
v 0.1 0.3 0.6
v 0.1 1.6 0.6
v 0.2 0.3 0.6
v 0.2 1.6 0.6
v -0.2 0.3 0.3
v -0.2 1.3 0.3
v -0.1 0.3 0.3
v -0.1 1.3 0.3
v 0.1 0.3 0.3
v 0.1 1.3 0.3
v 0.2 0.3 0.3
v 0.2 1.3 0.3
v -0.2 1.3 0.2
v -0.2 1.4 0.2
v -0.1 1.3 0.2
v -0.1 1.4 0.2
v 0.1 1.3 0.2
v 0.1 1.4 0.2
v 0.2 1.3 0.2
v 0.2 1.4 0.2
v -0.2 1.2 0.1
v -0.2 1.3 0.1
v -0.1 1.2 0.1
v -0.1 1.3 0.1
v 0.1 1.2 0.1
v 0.1 1.3 0.1
v 0.2 1.2 0.1
v 0.2 1.3 0.1
v -0.2 1.1 -0.1
v -0.2 1.2 -0.1
v -0.1 1.1 -0.1
v -0.1 1.2 -0.1
v 0.1 1.1 -0.1
v 0.1 1.2 -0.1
v 0.2 1.1 -0.1
v 0.2 1.2 -0.1
v -0.2 1.2 -0.2
v -0.2 1.3 -0.2
v -0.1 1.2 -0.2
v -0.1 1.3 -0.2
v 0.1 1.2 -0.2
v 0.1 1.3 -0.2
v 0.2 1.2 -0.2
v 0.2 1.3 -0.2
v -0.2 0.3 -0.4
v -0.2 1.4 -0.4
v -0.1 0.3 -0.4
v -0.1 1.4 -0.4
v 0.1 0.3 -0.4
v 0.1 1.4 -0.4
v 0.2 0.3 -0.4
v 0.2 1.4 -0.4
v -0.2 0.1 -0.7
v -0.2 0.2 -0.7
v -0.2 1.7 -0.7
v -0.2 1.8 -0.7
v -0.1 0 -0.7
v -0.1 0.1 -0.7
v -0.1 0.2 -0.7
v -0.1 1.7 -0.7
v -0.1 1.8 -0.7
v -0.1 1.9 -0.7
v 0.1 0 -0.7
v 0.1 0.1 -0.7
v 0.1 0.2 -0.7
v 0.1 1.7 -0.7
v 0.1 1.8 -0.7
v 0.1 1.9 -0.7
v 0.2 0.1 -0.7
v 0.2 0.2 -0.7
v 0.2 1.7 -0.7
v 0.2 1.8 -0.7
v -0.2 0.2 -0.8
v -0.2 1.7 -0.8
v -0.1 0.1 -0.8
v -0.1 0.2 -0.8
v -0.1 1.7 -0.8
v -0.1 1.8 -0.8
v 0.1 0.1 -0.8
v 0.1 0.2 -0.8
v 0.1 1.7 -0.8
v 0.1 1.8 -0.8
v 0.2 0.2 -0.8
v 0.2 1.7 -0.8
v -0.1 0.2 -0.9
v -0.1 1.7 -0.9
v 0.1 0.2 -0.9
v 0.1 1.7 -0.9
v -0.1 0 0.7
v 0.1 0 0.7
v -0.1 0 -0.7
v 0.1 0 -0.7
v -0.1 0.1 0.8
v 0.1 0.1 0.8
v -0.2 0.1 0.7
v -0.1 0.1 0.7
v 0.1 0.1 0.7
v 0.2 0.1 0.7
v -0.2 0.1 -0.7
v -0.1 0.1 -0.7
v 0.1 0.1 -0.7
v 0.2 0.1 -0.7
v -0.1 0.1 -0.8
v 0.1 0.1 -0.8
v -0.1 0.2 0.9
v 0.1 0.2 0.9
v -0.2 0.2 0.8
v -0.1 0.2 0.8
v 0.1 0.2 0.8
v 0.2 0.2 0.8
v -0.2 0.2 0.7
v -0.1 0.2 0.7
v 0.1 0.2 0.7
v 0.2 0.2 0.7
v -0.2 0.2 -0.7
v -0.1 0.2 -0.7
v 0.1 0.2 -0.7
v 0.2 0.2 -0.7
v -0.2 0.2 -0.8
v -0.1 0.2 -0.8
v 0.1 0.2 -0.8
v 0.2 0.2 -0.8
v -0.1 0.2 -0.9
v 0.1 0.2 -0.9
v -0.2 1.1 0.1
v -0.1 1.1 0.1
v 0.1 1.1 0.1
v 0.2 1.1 0.1
v -0.2 1.1 -0.1
v -0.1 1.1 -0.1
v 0.1 1.1 -0.1
v 0.2 1.1 -0.1
v -0.2 1.2 0.2
v -0.1 1.2 0.2
v 0.1 1.2 0.2
v 0.2 1.2 0.2
v -0.2 1.2 0.1
v -0.1 1.2 0.1
v 0.1 1.2 0.1
v 0.2 1.2 0.1
v -0.2 1.2 -0.1
v -0.1 1.2 -0.1
v 0.1 1.2 -0.1
v 0.2 1.2 -0.1
v -0.2 1.2 -0.2
v -0.1 1.2 -0.2
v 0.1 1.2 -0.2
v 0.2 1.2 -0.2
v -0.2 1.3 0.3
v -0.1 1.3 0.3
v 0.1 1.3 0.3
v 0.2 1.3 0.3
v -0.2 1.3 0.2
v -0.1 1.3 0.2
v 0.1 1.3 0.2
v 0.2 1.3 0.2
v -0.2 1.3 -0.2
v -0.1 1.3 -0.2
v 0.1 1.3 -0.2
v 0.2 1.3 -0.2
v -0.2 1.3 -0.3
v -0.1 1.3 -0.3
v 0.1 1.3 -0.3
v 0.2 1.3 -0.3
v -0.2 1.6 0.6
v -0.1 1.6 0.6
v 0.1 1.6 0.6
v 0.2 1.6 0.6
v -0.2 1.6 -0.6
v -0.1 1.6 -0.6
v 0.1 1.6 -0.6
v 0.2 1.6 -0.6
v -0.2 0.3 0.6
v -0.1 0.3 0.6
v 0.1 0.3 0.6
v 0.2 0.3 0.6
v -0.2 0.3 0.4
v -0.1 0.3 0.4
v 0.1 0.3 0.4
v 0.2 0.3 0.4
v -0.2 0.3 0.3
v -0.1 0.3 0.3
v 0.1 0.3 0.3
v 0.2 0.3 0.3
v -0.2 0.3 -0.3
v -0.1 0.3 -0.3
v 0.1 0.3 -0.3
v 0.2 0.3 -0.3
v -0.2 0.3 -0.4
v -0.1 0.3 -0.4
v 0.1 0.3 -0.4
v 0.2 0.3 -0.4
v -0.2 0.3 -0.6
v -0.1 0.3 -0.6
v 0.1 0.3 -0.6
v 0.2 0.3 -0.6
v -0.2 1.2 0.1
v -0.1 1.2 0.1
v 0.1 1.2 0.1
v 0.2 1.2 0.1
v -0.2 1.2 -0.1
v -0.1 1.2 -0.1
v 0.1 1.2 -0.1
v 0.2 1.2 -0.1
v -0.2 1.3 0.2
v -0.1 1.3 0.2
v 0.1 1.3 0.2
v 0.2 1.3 0.2
v -0.2 1.3 0.1
v -0.1 1.3 0.1
v 0.1 1.3 0.1
v 0.2 1.3 0.1
v -0.2 1.3 -0.1
v -0.1 1.3 -0.1
v 0.1 1.3 -0.1
v 0.2 1.3 -0.1
v -0.2 1.3 -0.2
v -0.1 1.3 -0.2
v 0.1 1.3 -0.2
v 0.2 1.3 -0.2
v -0.2 1.4 0.4
v -0.1 1.4 0.4
v 0.1 1.4 0.4
v 0.2 1.4 0.4
v -0.2 1.4 0.2
v -0.1 1.4 0.2
v 0.1 1.4 0.2
v 0.2 1.4 0.2
v -0.2 1.4 -0.2
v -0.1 1.4 -0.2
v 0.1 1.4 -0.2
v 0.2 1.4 -0.2
v -0.2 1.4 -0.4
v -0.1 1.4 -0.4
v 0.1 1.4 -0.4
v 0.2 1.4 -0.4
v -0.1 1.7 0.9
v 0.1 1.7 0.9
v -0.2 1.7 0.8
v -0.1 1.7 0.8
v 0.1 1.7 0.8
v 0.2 1.7 0.8
v -0.2 1.7 0.7
v -0.1 1.7 0.7
v 0.1 1.7 0.7
v 0.2 1.7 0.7
v -0.2 1.7 -0.7
v -0.1 1.7 -0.7
v 0.1 1.7 -0.7
v 0.2 1.7 -0.7
v -0.2 1.7 -0.8
v -0.1 1.7 -0.8
v 0.1 1.7 -0.8
v 0.2 1.7 -0.8
v -0.1 1.7 -0.9
v 0.1 1.7 -0.9
v -0.1 1.8 0.8
v 0.1 1.8 0.8
v -0.2 1.8 0.7
v -0.1 1.8 0.7
v 0.1 1.8 0.7
v 0.2 1.8 0.7
v -0.2 1.8 -0.7
v -0.1 1.8 -0.7
v 0.1 1.8 -0.7
v 0.2 1.8 -0.7
v -0.1 1.8 -0.8
v 0.1 1.8 -0.8
v -0.1 1.9 0.7
v 0.1 1.9 0.7
v -0.1 1.9 -0.7
v 0.1 1.9 -0.7

# faces
f 4/1/1 2/1/1 1/1/1
f 5/1/1 2/1/1 4/1/1
f 7/1/1 4/1/1 3/1/1
f 7/1/1 6/1/1 5/1/1
f 7/1/1 5/1/1 4/1/1
f 8/1/1 6/1/1 7/1/1
f 9/1/1 6/1/1 8/1/1
f 10/1/1 6/1/1 9/1/1
f 11/1/1 6/1/1 10/1/1
f 12/1/1 6/1/1 11/1/1
f 16/2/1 14/2/1 13/2/1
f 17/2/1 14/2/1 16/2/1
f 19/2/1 9/2/1 8/2/1
f 20/2/1 16/2/1 15/2/1
f 21/2/1 16/2/1 20/2/1
f 22/2/1 18/2/1 17/2/1
f 23/2/1 18/2/1 22/2/1
f 24/2/1 11/2/1 10/2/1
f 25/2/1 19/2/1 8/2/1
f 25/2/1 20/2/1 19/2/1
f 26/2/1 20/2/1 25/2/1
f 27/2/1 24/2/1 23/2/1
f 28/2/1 11/2/1 24/2/1
f 28/2/1 24/2/1 27/2/1
f 29/1/1 7/1/1 3/1/1
f 30/1/1 6/1/1 12/1/1
f 31/1/1 29/1/1 3/1/1
f 31/1/1 30/1/1 29/1/1
f 32/1/1 30/1/1 31/1/1
f 33/1/1 6/1/1 30/1/1
f 33/1/1 30/1/1 32/1/1
f 34/1/1 6/1/1 33/1/1
f 35/1/1 33/1/1 32/1/1
f 36/1/1 33/1/1 35/1/1
f 40/1/1 38/1/1 37/1/1
f 41/1/1 38/1/1 40/1/1
f 44/1/1 40/1/1 39/1/1
f 45/1/1 40/1/1 44/1/1
f 46/1/1 42/1/1 41/1/1
f 47/1/1 42/1/1 46/1/1
f 55/1/1 52/1/1 51/1/1
f 56/1/1 52/1/1 55/1/1
f 57/1/1 55/1/1 51/1/1
f 58/1/1 55/1/1 57/1/1
f 59/1/1 52/1/1 56/1/1
f 60/1/1 52/1/1 59/1/1
f 61/1/1 57/1/1 51/1/1
f 62/1/1 57/1/1 61/1/1
f 63/1/1 59/1/1 58/1/1
f 64/1/1 59/1/1 63/1/1
f 65/1/1 52/1/1 60/1/1
f 66/1/1 52/1/1 65/1/1
f 67/1/1 50/1/1 49/1/1
f 68/1/1 64/1/1 63/1/1
f 68/1/1 65/1/1 64/1/1
f 68/1/1 63/1/1 62/1/1
f 69/1/1 65/1/1 68/1/1
f 70/1/1 54/1/1 53/1/1
f 71/1/1 69/1/1 68/1/1
f 71/1/1 70/1/1 69/1/1
f 71/1/1 68/1/1 67/1/1
f 71/1/1 67/1/1 49/1/1
f 72/1/1 54/1/1 70/1/1
f 72/1/1 70/1/1 71/1/1
f 73/1/1 44/1/1 43/1/1
f 74/1/1 44/1/1 73/1/1
f 77/1/1 48/1/1 47/1/1
f 78/1/1 48/1/1 77/1/1
f 79/1/1 75/1/1 74/1/1
f 80/1/1 75/1/1 79/1/1
f 81/1/1 77/1/1 76/1/1
f 82/1/1 77/1/1 81/1/1
f 83/1/1 81/1/1 80/1/1
f 84/1/1 81/1/1 83/1/1
f 85/1/2 86/1/2 88/1/2
f 88/1/2 86/1/2 89/1/2
f 87/1/2 88/1/2 92/1/2
f 92/1/2 88/1/2 93/1/2
f 89/1/2 90/1/2 94/1/2
f 94/1/2 90/1/2 95/1/2
f 99/1/2 100/1/2 103/1/2
f 103/1/2 100/1/2 104/1/2
f 99/1/2 103/1/2 105/1/2
f 105/1/2 103/1/2 106/1/2
f 104/1/2 100/1/2 107/1/2
f 107/1/2 100/1/2 108/1/2
f 99/1/2 105/1/2 109/1/2
f 109/1/2 105/1/2 110/1/2
f 106/1/2 107/1/2 111/1/2
f 111/1/2 107/1/2 112/1/2
f 108/1/2 100/1/2 113/1/2
f 113/1/2 100/1/2 114/1/2
f 97/1/2 98/1/2 115/1/2
f 111/1/2 112/1/2 116/1/2
f 112/1/2 113/1/2 116/1/2
f 110/1/2 111/1/2 116/1/2
f 116/1/2 113/1/2 117/1/2
f 101/1/2 102/1/2 118/1/2
f 116/1/2 117/1/2 119/1/2
f 117/1/2 118/1/2 119/1/2
f 115/1/2 116/1/2 119/1/2
f 97/1/2 115/1/2 119/1/2
f 118/1/2 102/1/2 120/1/2
f 119/1/2 118/1/2 120/1/2
f 91/1/2 92/1/2 121/1/2
f 121/1/2 92/1/2 122/1/2
f 95/1/2 96/1/2 125/1/2
f 125/1/2 96/1/2 126/1/2
f 122/1/2 123/1/2 127/1/2
f 127/1/2 123/1/2 128/1/2
f 124/1/2 125/1/2 129/1/2
f 129/1/2 125/1/2 130/1/2
f 128/1/2 129/1/2 131/1/2
f 131/1/2 129/1/2 132/1/2
f 133/1/2 134/1/2 136/1/2
f 136/1/2 134/1/2 137/1/2
f 135/1/2 136/1/2 139/1/2
f 137/1/2 138/1/2 139/1/2
f 136/1/2 137/1/2 139/1/2
f 139/1/2 138/1/2 140/1/2
f 140/1/2 138/1/2 141/1/2
f 141/1/2 138/1/2 142/1/2
f 142/1/2 138/1/2 143/1/2
f 143/1/2 138/1/2 144/1/2
f 145/2/2 146/2/2 148/2/2
f 148/2/2 146/2/2 149/2/2
f 140/2/2 141/2/2 151/2/2
f 147/2/2 148/2/2 152/2/2
f 152/2/2 148/2/2 153/2/2
f 149/2/2 150/2/2 154/2/2
f 154/2/2 150/2/2 155/2/2
f 142/2/2 143/2/2 156/2/2
f 140/2/2 151/2/2 157/2/2
f 151/2/2 152/2/2 157/2/2
f 157/2/2 152/2/2 158/2/2
f 155/2/2 156/2/2 159/2/2
f 156/2/2 143/2/2 160/2/2
f 159/2/2 156/2/2 160/2/2
f 135/1/2 139/1/2 161/1/2
f 144/1/2 138/1/2 162/1/2
f 135/1/2 161/1/2 163/1/2
f 161/1/2 162/1/2 163/1/2
f 163/1/2 162/1/2 164/1/2
f 162/1/2 138/1/2 165/1/2
f 164/1/2 162/1/2 165/1/2
f 165/1/2 138/1/2 166/1/2
f 164/1/2 165/1/2 167/1/2
f 167/1/2 165/1/2 168/1/2
f 171/1/3 170/1/3 169/1/3
f 172/1/3 170/1/3 171/1/3
f 176/1/3 174/1/3 173/1/3
f 177/1/3 174/1/3 176/1/3
f 179/1/3 176/1/3 175/1/3
f 180/1/3 176/1/3 179/1/3
f 181/1/3 178/1/3 177/1/3
f 182/1/3 178/1/3 181/1/3
f 183/1/3 181/1/3 180/1/3
f 184/1/3 181/1/3 183/1/3
f 190/1/3 186/1/3 185/1/3
f 191/1/3 186/1/3 190/1/3
f 192/1/3 188/1/3 187/1/3
f 193/1/3 188/1/3 192/1/3
f 195/1/3 190/1/3 189/1/3
f 196/1/3 190/1/3 195/1/3
f 199/1/3 194/1/3 193/1/3
f 200/1/3 194/1/3 199/1/3
f 201/1/3 197/1/3 196/1/3
f 202/1/3 197/1/3 201/1/3
f 203/1/3 199/1/3 198/1/3
f 204/1/3 199/1/3 203/1/3
f 207/2/3 206/2/3 205/2/3
f 208/2/3 206/2/3 207/2/3
f 211/2/3 210/2/3 209/2/3
f 212/2/3 210/2/3 211/2/3
f 215/2/3 214/2/3 213/2/3
f 216/2/3 214/2/3 215/2/3
f 219/2/3 218/2/3 217/2/3
f 220/2/3 218/2/3 219/2/3
f 223/2/3 222/2/3 221/2/3
f 224/2/3 222/2/3 223/2/3
f 227/2/3 226/2/3 225/2/3
f 228/2/3 226/2/3 227/2/3
f 231/2/3 230/2/3 229/2/3
f 232/2/3 230/2/3 231/2/3
f 235/2/3 234/2/3 233/2/3
f 236/2/3 234/2/3 235/2/3
f 239/2/3 238/2/3 237/2/3
f 240/2/3 238/2/3 239/2/3
f 243/2/3 242/2/3 241/2/3
f 244/2/3 242/2/3 243/2/3
f 247/2/3 246/2/3 245/2/3
f 248/2/3 246/2/3 247/2/3
f 251/2/3 250/2/3 249/2/3
f 252/2/3 250/2/3 251/2/3
f 255/1/3 254/1/3 253/1/3
f 256/1/3 254/1/3 255/1/3
f 259/1/3 258/1/3 257/1/3
f 260/1/3 258/1/3 259/1/3
f 261/1/4 262/1/4 263/1/4
f 263/1/4 262/1/4 264/1/4
f 265/1/4 266/1/4 267/1/4
f 267/1/4 266/1/4 268/1/4
f 269/2/4 270/2/4 271/2/4
f 271/2/4 270/2/4 272/2/4
f 273/2/4 274/2/4 275/2/4
f 275/2/4 274/2/4 276/2/4
f 277/2/4 278/2/4 279/2/4
f 279/2/4 278/2/4 280/2/4
f 281/2/4 282/2/4 283/2/4
f 283/2/4 282/2/4 284/2/4
f 285/2/4 286/2/4 287/2/4
f 287/2/4 286/2/4 288/2/4
f 289/2/4 290/2/4 291/2/4
f 291/2/4 290/2/4 292/2/4
f 293/2/4 294/2/4 295/2/4
f 295/2/4 294/2/4 296/2/4
f 297/2/4 298/2/4 299/2/4
f 299/2/4 298/2/4 300/2/4
f 301/2/4 302/2/4 303/2/4
f 303/2/4 302/2/4 304/2/4
f 305/2/4 306/2/4 307/2/4
f 307/2/4 306/2/4 308/2/4
f 309/2/4 310/2/4 311/2/4
f 311/2/4 310/2/4 312/2/4
f 313/2/4 314/2/4 315/2/4
f 315/2/4 314/2/4 316/2/4
f 317/1/4 318/1/4 322/1/4
f 322/1/4 318/1/4 323/1/4
f 319/1/4 320/1/4 324/1/4
f 324/1/4 320/1/4 325/1/4
f 321/1/4 322/1/4 327/1/4
f 327/1/4 322/1/4 328/1/4
f 325/1/4 326/1/4 331/1/4
f 331/1/4 326/1/4 332/1/4
f 328/1/4 329/1/4 333/1/4
f 333/1/4 329/1/4 334/1/4
f 330/1/4 331/1/4 335/1/4
f 335/1/4 331/1/4 336/1/4
f 337/1/4 338/1/4 340/1/4
f 340/1/4 338/1/4 341/1/4
f 339/1/4 340/1/4 343/1/4
f 343/1/4 340/1/4 344/1/4
f 341/1/4 342/1/4 345/1/4
f 345/1/4 342/1/4 346/1/4
f 344/1/4 345/1/4 347/1/4
f 347/1/4 345/1/4 348/1/4
f 349/1/4 350/1/4 351/1/4
f 351/1/4 350/1/4 352/1/4
f 355/1/5 354/1/5 353/1/5
f 356/1/5 354/1/5 355/1/5
f 360/1/5 358/1/5 357/1/5
f 361/1/5 358/1/5 360/1/5
f 363/1/5 360/1/5 359/1/5
f 364/1/5 360/1/5 363/1/5
f 365/1/5 362/1/5 361/1/5
f 366/1/5 362/1/5 365/1/5
f 367/1/5 365/1/5 364/1/5
f 368/1/5 365/1/5 367/1/5
f 372/1/5 370/1/5 369/1/5
f 373/1/5 370/1/5 372/1/5
f 375/1/5 372/1/5 371/1/5
f 376/1/5 372/1/5 375/1/5
f 377/1/5 374/1/5 373/1/5
f 378/1/5 374/1/5 377/1/5
f 383/1/5 380/1/5 379/1/5
f 384/1/5 380/1/5 383/1/5
f 385/1/5 382/1/5 381/1/5
f 386/1/5 382/1/5 385/1/5
f 387/1/5 385/1/5 384/1/5
f 388/1/5 385/1/5 387/1/5
f 393/2/5 390/2/5 389/2/5
f 394/2/5 390/2/5 393/2/5
f 395/2/5 392/2/5 391/2/5
f 396/2/5 392/2/5 395/2/5
f 401/2/5 398/2/5 397/2/5
f 402/2/5 398/2/5 401/2/5
f 403/2/5 400/2/5 399/2/5
f 404/2/5 400/2/5 403/2/5
f 409/2/5 406/2/5 405/2/5
f 410/2/5 406/2/5 409/2/5
f 411/2/5 408/2/5 407/2/5
f 412/2/5 408/2/5 411/2/5
f 417/2/5 414/2/5 413/2/5
f 418/2/5 414/2/5 417/2/5
f 419/2/5 416/2/5 415/2/5
f 420/2/5 416/2/5 419/2/5
f 425/2/5 422/2/5 421/2/5
f 426/2/5 422/2/5 425/2/5
f 427/2/5 424/2/5 423/2/5
f 428/2/5 424/2/5 427/2/5
f 433/1/5 430/1/5 429/1/5
f 434/1/5 430/1/5 433/1/5
f 435/1/5 432/1/5 431/1/5
f 436/1/5 432/1/5 435/1/5
f 437/1/6 438/1/6 441/1/6
f 441/1/6 438/1/6 442/1/6
f 439/1/6 440/1/6 443/1/6
f 443/1/6 440/1/6 444/1/6
f 445/1/6 446/1/6 449/1/6
f 449/1/6 446/1/6 450/1/6
f 447/1/6 448/1/6 451/1/6
f 451/1/6 448/1/6 452/1/6
f 453/1/6 454/1/6 457/1/6
f 457/1/6 454/1/6 458/1/6
f 455/1/6 456/1/6 459/1/6
f 459/1/6 456/1/6 460/1/6
f 461/2/6 462/2/6 465/2/6
f 465/2/6 462/2/6 466/2/6
f 463/2/6 464/2/6 467/2/6
f 467/2/6 464/2/6 468/2/6
f 469/2/6 470/2/6 473/2/6
f 473/2/6 470/2/6 474/2/6
f 471/2/6 472/2/6 475/2/6
f 475/2/6 472/2/6 476/2/6
f 477/2/6 478/2/6 481/2/6
f 481/2/6 478/2/6 482/2/6
f 479/2/6 480/2/6 483/2/6
f 483/2/6 480/2/6 484/2/6
f 485/2/6 486/2/6 489/2/6
f 489/2/6 486/2/6 490/2/6
f 487/2/6 488/2/6 491/2/6
f 491/2/6 488/2/6 492/2/6
f 493/2/6 494/2/6 497/2/6
f 497/2/6 494/2/6 498/2/6
f 495/2/6 496/2/6 499/2/6
f 499/2/6 496/2/6 500/2/6
f 501/1/6 502/1/6 504/1/6
f 504/1/6 502/1/6 505/1/6
f 503/1/6 504/1/6 507/1/6
f 507/1/6 504/1/6 508/1/6
f 505/1/6 506/1/6 509/1/6
f 509/1/6 506/1/6 510/1/6
f 511/1/6 512/1/6 515/1/6
f 515/1/6 512/1/6 516/1/6
f 513/1/6 514/1/6 517/1/6
f 517/1/6 514/1/6 518/1/6
f 516/1/6 517/1/6 519/1/6
f 519/1/6 517/1/6 520/1/6
f 521/1/6 522/1/6 524/1/6
f 524/1/6 522/1/6 525/1/6
f 523/1/6 524/1/6 527/1/6
f 527/1/6 524/1/6 528/1/6
f 525/1/6 526/1/6 529/1/6
f 529/1/6 526/1/6 530/1/6
f 528/1/6 529/1/6 531/1/6
f 531/1/6 529/1/6 532/1/6
f 533/1/6 534/1/6 535/1/6
f 535/1/6 534/1/6 536/1/6
