# MagicaVoxel @ Ephtracy

# group
o 

# material
mtllib TurboSnailKyle.mtl
usemtl palette

# normals
vn -1 0 0
vn 1 0 0
vn 0 0 1
vn 0 0 -1
vn 0 -1 0
vn 0 1 0

# texcoords
vt 0.912109 0.5
vt 0.916016 0.5
vt 0.978516 0.5
vt 0.982422 0.5
vt 0.990234 0.5
vt 0.994141 0.5

# verts
v -1.1 0.2 -0.2
v -1.1 0.2 -0.6
v -1.1 0.5 -0.2
v -1.1 0.5 -0.6
v -1 0 -0.2
v -1 0 -0.6
v -1 0.2 -0.2
v -1 0.2 -0.6
v -0.9 0.4 -0.1
v -0.9 0.4 -0.2
v -0.9 0.4 -0.6
v -0.9 0.4 -0.7
v -0.9 0.5 -0.2
v -0.9 0.5 -0.6
v -0.9 0.7 -0.1
v -0.9 0.7 -0.2
v -0.9 0.7 -0.6
v -0.9 0.7 -0.7
v -0.5 0.3 -0.2
v -0.5 0.3 -0.6
v -0.5 0.8 -0.2
v -0.5 0.8 -0.6
v -0.4 0.1 -0.1
v -0.4 0.1 -0.2
v -0.4 0.1 -0.6
v -0.4 0.1 -0.7
v -0.4 0.8 -0.1
v -0.4 0.8 -0.2
v -0.4 0.8 -0.6
v -0.4 0.8 -0.7
v -0.4 0.9 -0.2
v -0.4 0.9 -0.6
v -0.2 0.2 -0.2
v -0.2 0.2 -0.3
v -0.2 0.3 -0.2
v -0.2 0.3 -0.3
v -0.2 0.3 -0.6
v -0.2 0.3 -0.7
v -0.2 0.4 -0.6
v -0.2 0.4 -0.7
v -0.2 0.5 -0.6
v -0.2 0.5 -0.7
v -0.2 0.6 -0.6
v -0.2 0.6 -0.7
v -0.1 0.3 -0.3
v -0.1 0.3 -0.4
v -0.1 0.4 -0.3
v -0.1 0.4 -0.4
v -0.1 0.4 -0.6
v -0.1 0.4 -0.7
v -0.1 0.5 -0.6
v -0.1 0.5 -0.7
v 0.1 0.3 -0.6
v 0.1 0.3 -0.7
v 0.1 0.4 -0.3
v 0.1 0.4 -0.4
v 0.1 0.4 -0.5
v 0.1 0.4 -0.6
v 0.1 0.4 -0.7
v 0.1 0.5 -0.3
v 0.1 0.5 -0.4
v 0.1 0.5 -0.5
v 0.1 0.5 -0.6
v 0.1 0.5 -0.7
v 0.1 0.6 -0.6
v 0.1 0.6 -0.7
v 0.2 0.2 -0.6
v 0.2 0.2 -0.7
v 0.2 0.3 -0.2
v 0.2 0.3 -0.3
v 0.2 0.3 -0.6
v 0.2 0.3 -0.7
v 0.2 0.6 -0.2
v 0.2 0.6 -0.3
v 0.2 0.6 -0.6
v 0.2 0.6 -0.7
v 0.2 0.7 -0.6
v 0.2 0.7 -0.7
v 0.3 0.2 -0.1
v 0.3 0.2 -0.2
v 0.3 0.3 -0.6
v 0.3 0.3 -0.7
v 0.3 0.6 -0.6
v 0.3 0.6 -0.7
v 0.3 0.7 -0.1
v 0.3 0.7 -0.2
v -0.8 0.4 -0.1
v -0.8 0.4 -0.2
v -0.8 0.4 -0.6
v -0.8 0.4 -0.7
v -0.8 0.5 -0.2
v -0.8 0.5 -0.6
v -0.8 0.7 -0.1
v -0.8 0.7 -0.2
v -0.8 0.7 -0.6
v -0.8 0.7 -0.7
v -0.7 0.3 -0.2
v -0.7 0.3 -0.6
v -0.7 0.5 -0.2
v -0.7 0.5 -0.6
v -0.3 0.2 -0.1
v -0.3 0.2 -0.3
v -0.3 0.3 -0.6
v -0.3 0.3 -0.7
v -0.3 0.6 -0.2
v -0.3 0.6 -0.3
v -0.3 0.6 -0.6
v -0.3 0.6 -0.7
v -0.3 0.7 -0.1
v -0.3 0.7 -0.2
v -0.2 0.2 -0.6
v -0.2 0.2 -0.7
v -0.2 0.3 -0.3
v -0.2 0.3 -0.4
v -0.2 0.3 -0.6
v -0.2 0.3 -0.7
v -0.2 0.5 -0.3
v -0.2 0.5 -0.4
v -0.2 0.6 -0.6
v -0.2 0.6 -0.7
v -0.2 0.7 -0.6
v -0.2 0.7 -0.7
v -0.1 0.3 -0.6
v -0.1 0.3 -0.7
v -0.1 0.4 -0.6
v -0.1 0.4 -0.7
v -0.1 0.5 -0.6
v -0.1 0.5 -0.7
v -0.1 0.6 -0.6
v -0.1 0.6 -0.7
v 0 0.4 -0.4
v 0 0.4 -0.5
v 0 0.5 -0.4
v 0 0.5 -0.5
v 0.1 0.4 -0.6
v 0.1 0.4 -0.7
v 0.1 0.5 -0.6
v 0.1 0.5 -0.7
v 0.2 0.3 -0.6
v 0.2 0.3 -0.7
v 0.2 0.4 -0.6
v 0.2 0.4 -0.7
v 0.2 0.5 -0.6
v 0.2 0.5 -0.7
v 0.2 0.6 -0.6
v 0.2 0.6 -0.7
v 0.4 0.1 -0.1
v 0.4 0.1 -0.2
v 0.4 0.1 -0.6
v 0.4 0.1 -0.7
v 0.4 0.8 -0.1
v 0.4 0.8 -0.2
v 0.4 0.8 -0.6
v 0.4 0.8 -0.7
v 0.4 0.9 -0.2
v 0.4 0.9 -0.6
v 0.5 0 -0.2
v 0.5 0 -0.6
v 0.5 0.8 -0.2
v 0.5 0.8 -0.6
v -0.9 0.4 -0.1
v -0.9 0.7 -0.1
v -0.8 0.4 -0.1
v -0.8 0.7 -0.1
v -0.4 0.1 -0.1
v -0.4 0.8 -0.1
v -0.3 0.2 -0.1
v -0.3 0.7 -0.1
v 0.3 0.2 -0.1
v 0.3 0.7 -0.1
v 0.4 0.1 -0.1
v 0.4 0.8 -0.1
v -1.1 0.2 -0.2
v -1.1 0.5 -0.2
v -1 0 -0.2
v -1 0.2 -0.2
v -0.9 0.4 -0.2
v -0.9 0.5 -0.2
v -0.8 0.4 -0.2
v -0.8 0.5 -0.2
v -0.7 0.3 -0.2
v -0.7 0.5 -0.2
v -0.5 0.1 -0.2
v -0.5 0.3 -0.2
v -0.5 0.8 -0.2
v -0.4 0 -0.2
v -0.4 0.1 -0.2
v -0.4 0.8 -0.2
v -0.4 0.9 -0.2
v -0.3 0.6 -0.2
v -0.3 0.7 -0.2
v -0.2 0.2 -0.2
v -0.2 0.3 -0.2
v 0.2 0.3 -0.2
v 0.2 0.6 -0.2
v 0.3 0.2 -0.2
v 0.3 0.7 -0.2
v 0.4 0.1 -0.2
v 0.4 0.8 -0.2
v 0.4 0.9 -0.2
v 0.5 0 -0.2
v 0.5 0.8 -0.2
v -0.3 0.2 -0.3
v -0.3 0.6 -0.3
v -0.2 0.2 -0.3
v -0.2 0.3 -0.3
v -0.2 0.5 -0.3
v -0.1 0.3 -0.3
v -0.1 0.4 -0.3
v 0.1 0.4 -0.3
v 0.1 0.5 -0.3
v 0.2 0.3 -0.3
v 0.2 0.6 -0.3
v -0.2 0.3 -0.4
v -0.2 0.5 -0.4
v -0.1 0.3 -0.4
v -0.1 0.4 -0.4
v 0 0.4 -0.4
v 0 0.5 -0.4
v 0 0.4 -0.5
v 0 0.5 -0.5
v 0.1 0.4 -0.5
v 0.1 0.5 -0.5
v -0.9 0.5 -0.6
v -0.9 0.7 -0.6
v -0.8 0.5 -0.6
v -0.8 0.7 -0.6
v -0.9 0.5 -0.2
v -0.9 0.7 -0.2
v -0.8 0.5 -0.2
v -0.8 0.7 -0.2
v -1.1 0.2 -0.6
v -1.1 0.5 -0.6
v -1 0 -0.6
v -1 0.2 -0.6
v -0.9 0.4 -0.6
v -0.9 0.5 -0.6
v -0.8 0.4 -0.6
v -0.8 0.5 -0.6
v -0.7 0.3 -0.6
v -0.7 0.5 -0.6
v -0.5 0.1 -0.6
v -0.5 0.3 -0.6
v -0.5 0.8 -0.6
v -0.4 0 -0.6
v -0.4 0.1 -0.6
v -0.4 0.8 -0.6
v -0.4 0.9 -0.6
v -0.3 0.3 -0.6
v -0.3 0.6 -0.6
v -0.2 0.2 -0.6
v -0.2 0.3 -0.6
v -0.2 0.4 -0.6
v -0.2 0.5 -0.6
v -0.2 0.6 -0.6
v -0.2 0.7 -0.6
v -0.1 0.3 -0.6
v -0.1 0.4 -0.6
v -0.1 0.5 -0.6
v -0.1 0.6 -0.6
v 0 0.3 -0.6
v 0 0.4 -0.6
v 0.1 0.3 -0.6
v 0.1 0.4 -0.6
v 0.1 0.5 -0.6
v 0.1 0.6 -0.6
v 0.2 0.2 -0.6
v 0.2 0.3 -0.6
v 0.2 0.4 -0.6
v 0.2 0.5 -0.6
v 0.2 0.6 -0.6
v 0.2 0.7 -0.6
v 0.3 0.3 -0.6
v 0.3 0.6 -0.6
v 0.4 0.1 -0.6
v 0.4 0.8 -0.6
v 0.4 0.9 -0.6
v 0.5 0 -0.6
v 0.5 0.8 -0.6
v -0.9 0.4 -0.7
v -0.9 0.7 -0.7
v -0.8 0.4 -0.7
v -0.8 0.7 -0.7
v -0.4 0.1 -0.7
v -0.4 0.8 -0.7
v -0.3 0.2 -0.7
v -0.3 0.3 -0.7
v -0.3 0.6 -0.7
v -0.3 0.7 -0.7
v -0.2 0.2 -0.7
v -0.2 0.3 -0.7
v -0.2 0.4 -0.7
v -0.2 0.5 -0.7
v -0.2 0.6 -0.7
v -0.2 0.7 -0.7
v -0.1 0.3 -0.7
v -0.1 0.4 -0.7
v -0.1 0.5 -0.7
v -0.1 0.6 -0.7
v 0.1 0.3 -0.7
v 0.1 0.4 -0.7
v 0.1 0.5 -0.7
v 0.1 0.6 -0.7
v 0.2 0.2 -0.7
v 0.2 0.3 -0.7
v 0.2 0.4 -0.7
v 0.2 0.5 -0.7
v 0.2 0.6 -0.7
v 0.2 0.7 -0.7
v 0.3 0.2 -0.7
v 0.3 0.3 -0.7
v 0.3 0.6 -0.7
v 0.3 0.7 -0.7
v 0.4 0.1 -0.7
v 0.4 0.8 -0.7
v -1 0 -0.2
v -0.4 0 -0.2
v 0.5 0 -0.2
v -1 0 -0.6
v -0.4 0 -0.6
v 0.5 0 -0.6
v -0.4 0.1 -0.1
v 0.4 0.1 -0.1
v -0.4 0.1 -0.2
v 0.4 0.1 -0.2
v -0.4 0.1 -0.6
v 0.4 0.1 -0.6
v -0.4 0.1 -0.7
v 0.4 0.1 -0.7
v -1.1 0.2 -0.2
v -1 0.2 -0.2
v -1.1 0.2 -0.6
v -1 0.2 -0.6
v -0.2 0.3 -0.6
v -0.1 0.3 -0.6
v 0.1 0.3 -0.6
v 0.2 0.3 -0.6
v -0.2 0.3 -0.7
v -0.1 0.3 -0.7
v 0.1 0.3 -0.7
v 0.2 0.3 -0.7
v -0.9 0.4 -0.1
v -0.8 0.4 -0.1
v -0.9 0.4 -0.2
v -0.8 0.4 -0.2
v -0.9 0.4 -0.6
v -0.8 0.4 -0.6
v -0.1 0.4 -0.6
v 0 0.4 -0.6
v 0.1 0.4 -0.6
v -0.9 0.4 -0.7
v -0.8 0.4 -0.7
v -0.1 0.4 -0.7
v 0.1 0.4 -0.7
v -0.2 0.5 -0.3
v 0.1 0.5 -0.3
v -0.2 0.5 -0.4
v 0 0.5 -0.4
v 0.1 0.5 -0.4
v 0 0.5 -0.5
v 0.1 0.5 -0.5
v -0.2 0.5 -0.6
v -0.1 0.5 -0.6
v 0.1 0.5 -0.6
v 0.2 0.5 -0.6
v -0.2 0.5 -0.7
v -0.1 0.5 -0.7
v 0.1 0.5 -0.7
v 0.2 0.5 -0.7
v -0.3 0.6 -0.2
v 0.2 0.6 -0.2
v -0.3 0.6 -0.3
v 0.2 0.6 -0.3
v -0.3 0.6 -0.6
v -0.2 0.6 -0.6
v 0.2 0.6 -0.6
v 0.3 0.6 -0.6
v -0.3 0.6 -0.7
v -0.2 0.6 -0.7
v 0.2 0.6 -0.7
v 0.3 0.6 -0.7
v -0.3 0.7 -0.1
v 0.3 0.7 -0.1
v -0.3 0.7 -0.2
v 0.3 0.7 -0.2
v -0.2 0.7 -0.6
v 0.2 0.7 -0.6
v -0.2 0.7 -0.7
v 0.2 0.7 -0.7
v -0.3 0.2 -0.1
v 0.3 0.2 -0.1
v -0.2 0.2 -0.2
v 0.3 0.2 -0.2
v -0.3 0.2 -0.3
v -0.2 0.2 -0.3
v -0.2 0.2 -0.6
v 0.2 0.2 -0.6
v -0.2 0.2 -0.7
v 0.2 0.2 -0.7
v -0.7 0.3 -0.2
v -0.5 0.3 -0.2
v -0.2 0.3 -0.2
v 0.2 0.3 -0.2
v -0.2 0.3 -0.3
v -0.1 0.3 -0.3
v 0.2 0.3 -0.3
v -0.2 0.3 -0.4
v -0.1 0.3 -0.4
v -0.7 0.3 -0.6
v -0.5 0.3 -0.6
v -0.3 0.3 -0.6
v -0.2 0.3 -0.6
v 0.2 0.3 -0.6
v 0.3 0.3 -0.6
v -0.3 0.3 -0.7
v -0.2 0.3 -0.7
v 0.2 0.3 -0.7
v 0.3 0.3 -0.7
v -0.1 0.4 -0.3
v 0.1 0.4 -0.3
v -0.1 0.4 -0.4
v 0 0.4 -0.4
v 0.1 0.4 -0.4
v 0 0.4 -0.5
v 0.1 0.4 -0.5
v -0.2 0.4 -0.6
v -0.1 0.4 -0.6
v 0.1 0.4 -0.6
v 0.2 0.4 -0.6
v -0.2 0.4 -0.7
v -0.1 0.4 -0.7
v 0.1 0.4 -0.7
v 0.2 0.4 -0.7
v -1.1 0.5 -0.2
v -0.9 0.5 -0.2
v -0.8 0.5 -0.2
v -0.7 0.5 -0.2
v -1.1 0.5 -0.6
v -0.9 0.5 -0.6
v -0.8 0.5 -0.6
v -0.7 0.5 -0.6
v -0.1 0.5 -0.6
v 0.1 0.5 -0.6
v -0.1 0.5 -0.7
v 0.1 0.5 -0.7
v -0.2 0.6 -0.6
v -0.1 0.6 -0.6
v 0.1 0.6 -0.6
v 0.2 0.6 -0.6
v -0.2 0.6 -0.7
v -0.1 0.6 -0.7
v 0.1 0.6 -0.7
v 0.2 0.6 -0.7
v -0.9 0.7 -0.1
v -0.8 0.7 -0.1
v -0.9 0.7 -0.2
v -0.8 0.7 -0.2
v -0.9 0.7 -0.6
v -0.8 0.7 -0.6
v -0.9 0.7 -0.7
v -0.8 0.7 -0.7
v -0.4 0.8 -0.1
v 0.4 0.8 -0.1
v -0.5 0.8 -0.2
v -0.4 0.8 -0.2
v 0.4 0.8 -0.2
v 0.5 0.8 -0.2
v -0.5 0.8 -0.6
v -0.4 0.8 -0.6
v 0.4 0.8 -0.6
v 0.5 0.8 -0.6
v -0.4 0.8 -0.7
v 0.4 0.8 -0.7
v -0.4 0.9 -0.2
v 0.4 0.9 -0.2
v -0.4 0.9 -0.6
v 0.4 0.9 -0.6

# faces
f 3/2/1 2/2/1 1/2/1
f 4/2/1 2/2/1 3/2/1
f 7/2/1 6/2/1 5/2/1
f 8/2/1 6/2/1 7/2/1
f 13/1/1 10/1/1 9/1/1
f 14/1/1 12/1/1 11/1/1
f 15/1/1 13/1/1 9/1/1
f 16/1/1 13/1/1 15/1/1
f 17/1/1 12/1/1 14/1/1
f 18/1/1 12/1/1 17/1/1
f 21/5/1 20/5/1 19/5/1
f 22/5/1 20/5/1 21/5/1
f 27/5/1 24/5/1 23/5/1
f 28/5/1 24/5/1 27/5/1
f 29/5/1 26/5/1 25/5/1
f 30/5/1 26/5/1 29/5/1
f 31/5/1 29/5/1 28/5/1
f 32/5/1 29/5/1 31/5/1
f 35/3/1 34/3/1 33/3/1
f 36/3/1 34/3/1 35/3/1
f 39/3/1 38/3/1 37/3/1
f 40/3/1 38/3/1 39/3/1
f 43/3/1 42/3/1 41/3/1
f 44/3/1 42/3/1 43/3/1
f 47/4/1 46/4/1 45/4/1
f 48/4/1 46/4/1 47/4/1
f 51/3/1 50/3/1 49/3/1
f 52/3/1 50/3/1 51/3/1
f 58/3/1 54/3/1 53/3/1
f 59/3/1 54/3/1 58/3/1
f 60/4/1 56/4/1 55/4/1
f 61/3/1 57/3/1 56/3/1
f 61/4/1 56/4/1 60/4/1
f 62/3/1 57/3/1 61/3/1
f 65/3/1 64/3/1 63/3/1
f 66/3/1 64/3/1 65/3/1
f 71/3/1 68/3/1 67/3/1
f 72/3/1 68/3/1 71/3/1
f 73/3/1 70/3/1 69/3/1
f 74/3/1 70/3/1 73/3/1
f 77/3/1 76/3/1 75/3/1
f 78/3/1 76/3/1 77/3/1
f 83/5/1 82/5/1 81/5/1
f 84/5/1 82/5/1 83/5/1
f 85/5/1 80/5/1 79/5/1
f 86/5/1 80/5/1 85/5/1
f 87/1/2 88/1/2 91/1/2
f 89/1/2 90/1/2 92/1/2
f 87/1/2 91/1/2 93/1/2
f 93/1/2 91/1/2 94/1/2
f 92/1/2 90/1/2 95/1/2
f 95/1/2 90/1/2 96/1/2
f 97/2/2 98/2/2 99/2/2
f 99/2/2 98/2/2 100/2/2
f 101/5/2 102/5/2 105/5/2
f 105/5/2 102/5/2 106/5/2
f 103/5/2 104/5/2 107/5/2
f 107/5/2 104/5/2 108/5/2
f 101/5/2 105/5/2 109/5/2
f 109/5/2 105/5/2 110/5/2
f 111/3/2 112/3/2 115/3/2
f 115/3/2 112/3/2 116/3/2
f 113/4/2 114/4/2 117/4/2
f 117/4/2 114/4/2 118/4/2
f 119/3/2 120/3/2 121/3/2
f 121/3/2 120/3/2 122/3/2
f 123/3/2 124/3/2 125/3/2
f 125/3/2 124/3/2 126/3/2
f 127/3/2 128/3/2 129/3/2
f 129/3/2 128/3/2 130/3/2
f 131/3/2 132/3/2 133/3/2
f 133/3/2 132/3/2 134/3/2
f 135/3/2 136/3/2 137/3/2
f 137/3/2 136/3/2 138/3/2
f 139/3/2 140/3/2 141/3/2
f 141/3/2 140/3/2 142/3/2
f 143/3/2 144/3/2 145/3/2
f 145/3/2 144/3/2 146/3/2
f 147/5/2 148/5/2 151/5/2
f 151/5/2 148/5/2 152/5/2
f 149/5/2 150/5/2 153/5/2
f 153/5/2 150/5/2 154/5/2
f 152/5/2 153/5/2 155/5/2
f 155/5/2 153/5/2 156/5/2
f 157/5/2 158/5/2 159/5/2
f 159/5/2 158/5/2 160/5/2
f 163/1/3 162/1/3 161/1/3
f 164/1/3 162/1/3 163/1/3
f 167/5/3 166/5/3 165/5/3
f 168/5/3 166/5/3 167/5/3
f 169/5/3 167/5/3 165/5/3
f 170/5/3 166/5/3 168/5/3
f 171/5/3 169/5/3 165/5/3
f 171/5/3 170/5/3 169/5/3
f 172/5/3 166/5/3 170/5/3
f 172/5/3 170/5/3 171/5/3
f 176/2/3 174/2/3 173/2/3
f 177/2/3 174/2/3 176/2/3
f 177/2/3 176/2/3 175/2/3
f 178/2/3 174/2/3 177/2/3
f 179/2/3 177/2/3 175/2/3
f 181/2/3 179/2/3 175/2/3
f 181/2/3 180/2/3 179/2/3
f 182/2/3 180/2/3 181/2/3
f 183/2/3 181/2/3 175/2/3
f 184/2/3 181/2/3 183/2/3
f 186/2/3 183/2/3 175/2/3
f 187/5/3 184/5/3 183/5/3
f 187/2/3 183/2/3 186/2/3
f 187/5/3 185/5/3 184/5/3
f 188/5/3 185/5/3 187/5/3
f 194/3/3 193/3/3 192/3/3
f 195/3/3 191/3/3 190/3/3
f 196/3/3 194/3/3 192/3/3
f 196/3/3 195/3/3 194/3/3
f 197/3/3 191/3/3 195/3/3
f 197/3/3 195/3/3 196/3/3
f 198/5/3 187/5/3 186/5/3
f 199/5/3 189/5/3 188/5/3
f 200/5/3 189/5/3 199/5/3
f 201/5/3 198/5/3 186/5/3
f 201/5/3 199/5/3 198/5/3
f 202/5/3 199/5/3 201/5/3
f 205/4/3 204/4/3 203/4/3
f 206/4/3 204/4/3 205/4/3
f 207/4/3 204/4/3 206/4/3
f 210/4/3 209/4/3 208/4/3
f 211/4/3 204/4/3 207/4/3
f 212/4/3 210/4/3 208/4/3
f 212/4/3 211/4/3 210/4/3
f 213/4/3 204/4/3 211/4/3
f 213/4/3 211/4/3 212/4/3
f 216/3/3 215/3/3 214/3/3
f 217/3/3 215/3/3 216/3/3
f 218/3/3 215/3/3 217/3/3
f 219/3/3 215/3/3 218/3/3
f 222/6/3 221/6/3 220/6/3
f 223/6/3 221/6/3 222/6/3
f 226/1/3 225/1/3 224/1/3
f 227/1/3 225/1/3 226/1/3
f 228/1/4 229/1/4 230/1/4
f 230/1/4 229/1/4 231/1/4
f 232/2/4 233/2/4 235/2/4
f 235/2/4 233/2/4 236/2/4
f 234/2/4 235/2/4 236/2/4
f 236/2/4 233/2/4 237/2/4
f 234/2/4 236/2/4 238/2/4
f 234/2/4 238/2/4 240/2/4
f 238/2/4 239/2/4 240/2/4
f 240/2/4 239/2/4 241/2/4
f 234/2/4 240/2/4 242/2/4
f 242/2/4 240/2/4 243/2/4
f 234/2/4 242/2/4 245/2/4
f 242/5/4 243/5/4 246/5/4
f 245/2/4 242/2/4 246/2/4
f 243/5/4 244/5/4 246/5/4
f 246/5/4 244/5/4 247/5/4
f 249/5/4 250/5/4 252/5/4
f 252/5/4 250/5/4 253/5/4
f 253/5/4 250/5/4 254/5/4
f 254/5/4 250/5/4 255/5/4
f 251/5/4 252/5/4 257/5/4
f 253/5/4 254/5/4 258/5/4
f 258/5/4 254/5/4 259/5/4
f 255/5/4 256/5/4 260/5/4
f 251/5/4 257/5/4 261/5/4
f 257/5/4 258/5/4 261/5/4
f 261/5/4 258/5/4 262/5/4
f 251/5/4 261/5/4 263/5/4
f 261/3/4 262/3/4 263/3/4
f 263/3/4 262/3/4 264/3/4
f 259/5/4 260/5/4 265/5/4
f 260/5/4 256/5/4 266/5/4
f 265/5/4 260/5/4 266/5/4
f 251/5/4 263/5/4 267/5/4
f 267/5/4 263/5/4 268/5/4
f 264/3/4 265/3/4 269/3/4
f 269/3/4 265/3/4 270/3/4
f 266/5/4 256/5/4 271/5/4
f 271/5/4 256/5/4 272/5/4
f 269/5/4 270/5/4 273/5/4
f 270/5/4 271/5/4 273/5/4
f 268/5/4 269/5/4 273/5/4
f 273/5/4 271/5/4 274/5/4
f 245/5/4 246/5/4 275/5/4
f 247/5/4 248/5/4 276/5/4
f 276/5/4 248/5/4 277/5/4
f 245/5/4 275/5/4 278/5/4
f 275/5/4 276/5/4 278/5/4
f 278/5/4 276/5/4 279/5/4
f 280/1/4 281/1/4 282/1/4
f 282/1/4 281/1/4 283/1/4
f 284/5/4 285/5/4 286/5/4
f 286/5/4 285/5/4 287/5/4
f 287/5/4 285/5/4 288/5/4
f 288/5/4 285/5/4 289/5/4
f 284/5/4 286/5/4 290/5/4
f 286/3/4 287/3/4 290/3/4
f 290/3/4 287/3/4 291/3/4
f 288/3/4 289/3/4 294/3/4
f 289/5/4 285/5/4 295/5/4
f 294/3/4 289/3/4 295/3/4
f 291/3/4 292/3/4 296/3/4
f 296/3/4 292/3/4 297/3/4
f 293/3/4 294/3/4 298/3/4
f 298/3/4 294/3/4 299/3/4
f 297/3/4 298/3/4 301/3/4
f 301/3/4 298/3/4 302/3/4
f 284/5/4 290/5/4 304/5/4
f 300/3/4 301/3/4 305/3/4
f 305/3/4 301/3/4 306/3/4
f 302/3/4 303/3/4 307/3/4
f 307/3/4 303/3/4 308/3/4
f 295/5/4 285/5/4 309/5/4
f 284/5/4 304/5/4 310/5/4
f 304/3/4 305/3/4 310/3/4
f 310/3/4 305/3/4 311/3/4
f 308/3/4 309/3/4 312/3/4
f 309/5/4 285/5/4 313/5/4
f 312/3/4 309/3/4 313/3/4
f 310/5/4 311/5/4 314/5/4
f 311/5/4 312/5/4 314/5/4
f 312/5/4 313/5/4 314/5/4
f 284/5/4 310/5/4 314/5/4
f 313/5/4 285/5/4 315/5/4
f 314/5/4 313/5/4 315/5/4
f 319/2/5 317/2/5 316/2/5
f 320/5/5 318/5/5 317/5/5
f 320/2/5 317/2/5 319/2/5
f 321/5/5 318/5/5 320/5/5
f 324/5/5 323/5/5 322/5/5
f 325/5/5 323/5/5 324/5/5
f 328/5/5 327/5/5 326/5/5
f 329/5/5 327/5/5 328/5/5
f 332/2/5 331/2/5 330/2/5
f 333/2/5 331/2/5 332/2/5
f 338/3/5 335/3/5 334/3/5
f 339/3/5 335/3/5 338/3/5
f 340/3/5 337/3/5 336/3/5
f 341/3/5 337/3/5 340/3/5
f 344/1/5 343/1/5 342/1/5
f 345/1/5 343/1/5 344/1/5
f 351/1/5 347/1/5 346/1/5
f 352/1/5 347/1/5 351/1/5
f 353/3/5 350/3/5 349/3/5
f 353/3/5 349/3/5 348/3/5
f 354/3/5 350/3/5 353/3/5
f 357/4/5 356/4/5 355/4/5
f 358/4/5 356/4/5 357/4/5
f 359/4/5 356/4/5 358/4/5
f 360/5/5 359/5/5 358/5/5
f 361/5/5 359/5/5 360/5/5
f 366/3/5 363/3/5 362/3/5
f 367/3/5 363/3/5 366/3/5
f 368/3/5 365/3/5 364/3/5
f 369/3/5 365/3/5 368/3/5
f 372/3/5 371/3/5 370/3/5
f 373/3/5 371/3/5 372/3/5
f 378/3/5 375/3/5 374/3/5
f 379/3/5 375/3/5 378/3/5
f 380/3/5 377/3/5 376/3/5
f 381/3/5 377/3/5 380/3/5
f 384/5/5 383/5/5 382/5/5
f 385/5/5 383/5/5 384/5/5
f 388/5/5 387/5/5 386/5/5
f 389/5/5 387/5/5 388/5/5
f 390/5/6 391/5/6 392/5/6
f 392/5/6 391/5/6 393/5/6
f 390/5/6 392/5/6 394/5/6
f 394/5/6 392/5/6 395/5/6
f 396/5/6 397/5/6 398/5/6
f 398/5/6 397/5/6 399/5/6
f 402/3/6 403/3/6 404/3/6
f 404/3/6 403/3/6 405/3/6
f 405/3/6 403/3/6 406/3/6
f 404/5/6 405/5/6 407/5/6
f 407/5/6 405/5/6 408/5/6
f 400/2/6 401/2/6 409/2/6
f 409/2/6 401/2/6 410/2/6
f 411/3/6 412/3/6 415/3/6
f 415/3/6 412/3/6 416/3/6
f 413/3/6 414/3/6 417/3/6
f 417/3/6 414/3/6 418/3/6
f 419/4/6 420/4/6 421/4/6
f 421/4/6 420/4/6 422/4/6
f 422/4/6 420/4/6 423/4/6
f 422/3/6 423/3/6 424/3/6
f 424/3/6 423/3/6 425/3/6
f 426/3/6 427/3/6 430/3/6
f 430/3/6 427/3/6 431/3/6
f 428/3/6 429/3/6 432/3/6
f 432/3/6 429/3/6 433/3/6
f 434/2/6 435/2/6 438/2/6
f 436/2/6 437/2/6 438/2/6
f 435/2/6 436/2/6 438/2/6
f 438/2/6 437/2/6 439/2/6
f 439/2/6 437/2/6 440/2/6
f 440/2/6 437/2/6 441/2/6
f 442/3/6 443/3/6 444/3/6
f 444/3/6 443/3/6 445/3/6
f 446/3/6 447/3/6 450/3/6
f 450/3/6 447/3/6 451/3/6
f 448/3/6 449/3/6 452/3/6
f 452/3/6 449/3/6 453/3/6
f 454/1/6 455/1/6 456/1/6
f 456/1/6 455/1/6 457/1/6
f 458/1/6 459/1/6 460/1/6
f 460/1/6 459/1/6 461/1/6
f 462/5/6 463/5/6 465/5/6
f 465/5/6 463/5/6 466/5/6
f 464/5/6 465/5/6 468/5/6
f 468/5/6 465/5/6 469/5/6
f 466/5/6 467/5/6 470/5/6
f 470/5/6 467/5/6 471/5/6
f 469/5/6 470/5/6 472/5/6
f 472/5/6 470/5/6 473/5/6
f 474/5/6 475/5/6 476/5/6
f 476/5/6 475/5/6 477/5/6
