# MagicaVoxel @ Ephtracy

# group
o 

# material
mtllib untitled-2.mtl
usemtl palette

# normals
vn -1 0 0
vn 1 0 0
vn 0 0 1
vn 0 0 -1
vn 0 -1 0
vn 0 1 0

# texcoords
vt 0.810547 0.5
vt 0.912109 0.5
vt 0.931641 0.5

# verts
v -0.5 1.6 1
v -0.5 1.6 0.9
v -0.5 1.6 0.1
v -0.5 1.6 -0.1
v -0.5 1.7 0.9
v -0.5 1.7 0.8
v -0.5 1.7 0.3
v -0.5 1.7 0.1
v -0.5 1.8 1
v -0.5 1.8 0.8
v -0.5 1.8 0.3
v -0.5 1.8 -0.1
v -0.4 1.6 1
v -0.4 1.6 0.9
v -0.4 1.6 0.1
v -0.4 1.6 -0.1
v -0.4 1.7 0.9
v -0.4 1.7 0.8
v -0.4 1.7 0.3
v -0.4 1.7 0.1
v -0.4 1.8 1
v -0.4 1.8 0.8
v -0.4 1.8 0.3
v -0.4 1.8 -0.1
v -0.5 1.6 1
v -0.5 1.8 1
v -0.4 1.6 1
v -0.4 1.8 1
v -0.5 1.6 -0.1
v -0.5 1.8 -0.1
v -0.4 1.6 -0.1
v -0.4 1.8 -0.1
v -0.5 1.6 1
v -0.4 1.6 1
v -0.5 1.6 0.9
v -0.4 1.6 0.9
v -0.5 1.6 0.1
v -0.4 1.6 0.1
v -0.5 1.6 -0.1
v -0.4 1.6 -0.1
v -0.5 1.8 1
v -0.4 1.8 1
v -0.5 1.8 0.8
v -0.4 1.8 0.8
v -0.5 1.8 0.3
v -0.4 1.8 0.3
v -0.5 1.8 -0.1
v -0.4 1.8 -0.1

# faces
f 5/3/1 2/3/1 1/3/1
f 5/1/1 3/1/1 2/1/1
f 6/1/1 3/1/1 5/1/1
f 7/1/1 3/1/1 6/1/1
f 8/2/1 4/2/1 3/2/1
f 8/1/1 3/1/1 7/1/1
f 9/3/1 5/3/1 1/3/1
f 9/3/1 6/3/1 5/3/1
f 10/1/1 7/1/1 6/1/1
f 10/3/1 6/3/1 9/3/1
f 11/2/1 8/2/1 7/2/1
f 11/1/1 7/1/1 10/1/1
f 12/2/1 4/2/1 8/2/1
f 12/2/1 8/2/1 11/2/1
f 13/3/2 14/3/2 17/3/2
f 14/1/2 15/1/2 17/1/2
f 17/1/2 15/1/2 18/1/2
f 18/1/2 15/1/2 19/1/2
f 15/2/2 16/2/2 20/2/2
f 19/1/2 15/1/2 20/1/2
f 13/3/2 17/3/2 21/3/2
f 17/3/2 18/3/2 21/3/2
f 18/1/2 19/1/2 22/1/2
f 21/3/2 18/3/2 22/3/2
f 19/2/2 20/2/2 23/2/2
f 22/1/2 19/1/2 23/1/2
f 20/2/2 16/2/2 24/2/2
f 23/2/2 20/2/2 24/2/2
f 27/3/3 26/3/3 25/3/3
f 28/3/3 26/3/3 27/3/3
f 29/2/4 30/2/4 31/2/4
f 31/2/4 30/2/4 32/2/4
f 35/3/5 34/3/5 33/3/5
f 36/3/5 34/3/5 35/3/5
f 37/1/5 36/1/5 35/1/5
f 38/1/5 36/1/5 37/1/5
f 39/2/5 38/2/5 37/2/5
f 40/2/5 38/2/5 39/2/5
f 41/3/6 42/3/6 43/3/6
f 43/3/6 42/3/6 44/3/6
f 43/1/6 44/1/6 45/1/6
f 45/1/6 44/1/6 46/1/6
f 45/2/6 46/2/6 47/2/6
f 47/2/6 46/2/6 48/2/6
